<svg width="32" height="32" viewBox="0 0 32 32" fill="none" xmlns="http://www.w3.org/2000/svg">
<path d="M21.3334 10.6667H22.8796C24.2666 10.6667 25.4219 11.7298 25.5371 13.1119L26.426 23.7785C26.5556 25.3332 25.3287 26.6667 23.7686 26.6667H8.23149C6.67138 26.6667 5.44447 25.3332 5.57403 23.7785L6.46292 13.1119C6.5781 11.7298 7.73347 10.6667 9.12038 10.6667H10.6667M21.3334 10.6667H10.6667M21.3334 10.6667V9.33333C21.3334 7.91884 20.7715 6.56229 19.7712 5.56209C18.7711 4.56191 17.4146 4 16 4C14.5855 4 13.229 4.56191 12.2288 5.56209C11.2286 6.56229 10.6667 7.91884 10.6667 9.33333V10.6667M21.3334 10.6667V16M10.6667 10.6667V16" stroke="#EDF6F9" stroke-width="2" stroke-linecap="round" stroke-linejoin="round"/>
</svg>
