<svg width="32" height="32" viewBox="0 0 32 32" fill="none" xmlns="http://www.w3.org/2000/svg">
<path d="M29.7195 26.3067L23.7554 20.3426C25.3807 18.3548 26.1798 15.8184 25.9874 13.258C25.7951 10.6975 24.6259 8.309 22.7219 6.5864C20.8178 4.86381 18.3245 3.93895 15.7576 4.00313C13.1908 4.06731 10.7468 5.11562 8.93121 6.93121C7.11562 8.74681 6.06731 11.1908 6.00313 13.7576C5.93895 16.3245 6.86381 18.8178 8.5864 20.7219C10.309 22.6259 12.6975 23.7951 15.258 23.9874C17.8184 24.1798 20.3548 23.3807 22.3426 21.7554L28.3067 27.7195C28.4951 27.9015 28.7475 28.0022 29.0095 28C29.2715 27.9977 29.5221 27.8926 29.7073 27.7073C29.8926 27.5221 29.9977 27.2715 30 27.0095C30.0022 26.7475 29.9015 26.4951 29.7195 26.3067ZM16.0238 22.0172C14.4428 22.0172 12.8974 21.5484 11.5829 20.6701C10.2683 19.7917 9.24381 18.5433 8.6388 17.0827C8.0338 15.6221 7.8755 14.0149 8.18393 12.4643C8.49236 10.9138 9.25366 9.48946 10.3716 8.37156C11.4895 7.25366 12.9138 6.49236 14.4643 6.18393C16.0149 5.8755 17.6221 6.0338 19.0827 6.6388C20.5433 7.24381 21.7917 8.26835 22.6701 9.58286C23.5484 10.8974 24.0172 12.4428 24.0172 14.0238C24.0148 16.143 23.1719 18.1748 21.6734 19.6734C20.1748 21.1719 18.143 22.0148 16.0238 22.0172Z" fill="#EDF6F9"/>
</svg>
